<svg id="Capa_1" enable-background="new 0 0 512 512" height="512" viewBox="0 0 512 512" width="512" xmlns="http://www.w3.org/2000/svg"><g><g><path d="m502.073 284.637c4.19-8.788 4.596-18.993.93-28.193l-.126-.322c-2.075-5.357-5.554-9.805-9.908-13.029 1.109-2.695 1.725-5.643 1.725-8.734v-45.555c0-12.702-10.333-23.035-23.035-23.035h-24.504c-1.015 0-2.014.073-2.995.201v-56.581c0-15.479-12.594-28.073-28.073-28.073h-142.014c-6.88 0-13.186 2.492-18.073 6.615-4.887-4.123-11.193-6.615-18.073-6.615h-139.17c-15.479 0-28.073 12.594-28.073 28.073v56.586c-.994-.132-2.006-.206-3.035-.206h-24.504c-12.701 0-23.035 10.333-23.035 23.035v45.555c0 2.522.413 4.947 1.165 7.22-5.408 3.267-9.728 8.285-12.145 14.524l-.127.322c-3.672 9.216-3.267 19.424.923 28.212-5.488.04-9.926 4.498-9.926 9.996v67.82c0 5.523 4.477 10 10 10h27.529v48.232c0 5.523 4.477 10 10 10h27.868c3.667 0 7.04-2.007 8.789-5.23l28.765-53.002h286.099l28.765 53.002c1.749 3.223 5.122 5.23 8.789 5.23h27.868c5.523 0 10-4.477 10-10v-48.232h27.528c5.523 0 10-4.477 10-10v-67.82c0-5.498-4.438-9.956-9.927-9.996zm-236.073-18.097c0-5.043 4.103-9.146 9.146-9.146h200.508c3.807 0 7.172 2.336 8.573 5.953l.189.482c1.906 4.784 1.351 9.96-1.525 14.202-2.845 4.196-7.39 6.603-12.468 6.603h-204.423zm181.154-80.772h24.504c1.673 0 3.035 1.361 3.035 3.035v45.555c0 1.674-1.362 3.035-3.035 3.035h-24.504c-4.051 0-2.995-5.499-2.995-8.099v-40.887c.197-1.485 1.458-2.639 2.995-2.639zm-173.081-84.453h142.013c4.452 0 8.073 3.622 8.073 8.073l-.04 120.697c-.399 4.082-3.848 7.283-8.033 7.283h-142.013c-4.452 0-8.073-3.622-8.073-8.073v-119.907c0-4.451 3.622-8.073 8.073-8.073zm-183.389 8.073c0-4.452 3.622-8.073 8.073-8.073h139.169c4.452 0 8.073 3.622 8.073 8.073v119.906.026c0 4.452-3.622 8.073-8.073 8.073h-1.073-128.096c-6.847 0-16.805-5.432-18.073-8.334zm-50.574 79.415c0-1.674 1.361-3.035 3.035-3.035h24.504c1.674 0 3.035 1.361 3.035 3.035v40.517c0 2.57.962 8.073-3.035 8.073h-24.504c-1.673 0-3.035-1.361-3.035-3.035zm29.336 221.882h-11.917v-38.232h32.666zm385.025 0h-11.917l-20.749-38.232h32.666zm37.529-58.232h-472v-47.82h62.243c5.523 0 10-4.477 10-10s-4.477-10-10-10h-40.667c-5.079 0-9.623-2.406-12.467-6.603-2.876-4.241-3.432-9.418-1.531-14.19l.195-.494c1.401-3.616 4.766-5.953 8.573-5.953h6.799 193.709c5.043 0 9.146 4.103 9.146 9.146v18.093h-75.792c-5.523 0-10 4.477-10 10s4.477 10 10 10h321.792z"/><path d="m135.46 290.81c-3.404-8.312-15.643-7.933-18.646.455-3.067 8.566 6.451 16.494 14.334 12.065 4.339-2.437 6.227-7.928 4.312-12.52z"/></g></g></svg>