<svg id="Capa_1" enable-background="new 0 0 512 512" height="512" viewBox="0 0 512 512" width="512" xmlns="http://www.w3.org/2000/svg"><path d="m502 363.103h-37.806c-5.522 0-10 4.478-10 10v19.026h-23.363v-19.026c0-5.522-4.478-10-10-10h-40.211v-129.2c0-5.522-4.477-10-10-10h-25.021v-85.683c0-.008 0-.017 0-.025 0-.077-.001-.154-.003-.231 0-.004 0-.007 0-.011-.002-.068-.004-.136-.008-.204-.001-.028-.003-.056-.004-.084-.003-.047-.006-.094-.009-.142-.004-.06-.009-.12-.014-.18-.002-.017-.003-.034-.005-.051-.15-1.636-.695-3.159-1.538-4.471l-79.532-127.594c-1.826-2.93-5.034-4.71-8.486-4.71s-6.66 1.78-8.486 4.71l-79.531 127.594c-.843 1.312-1.387 2.835-1.538 4.471-.002.017-.003.034-.005.051-.005.06-.01.12-.014.18-.003.047-.006.094-.009.142-.002.028-.003.056-.004.084-.003.068-.006.136-.008.204v.011c-.002.077-.003.154-.003.231v.025 85.684h-25.022c-5.522 0-10 4.478-10 10v129.199h-40.211c-5.522 0-10 4.478-10 10v19.026h-23.363v-19.026c0-5.522-4.478-10-10-10h-37.806c-5.523 0-10 4.478-10 10v128.38c0 5.523 4.477 10 10 10h492c5.522 0 10-4.477 10-10v-128.38c0-5.523-4.478-10-10-10zm-246-333.681 61.582 98.798h-123.164zm-69.599 118.798h139.197v75.684h-21.598c-5.522 0-10 4.478-10 10v29.245h-76v-29.245c0-5.522-4.477-10-10-10h-21.599zm-166.401 234.883h17.806v19.026c0 5.522 4.478 10 10 10h43.363c5.522 0 10-4.478 10-10v-19.026h30.211v108.38h-111.38zm131.38-46.272h59.453c5.523 0 10-4.478 10-10s-4.477-10-10-10h-59.453v-72.928h46.62v29.245c0 5.522 4.477 10 10 10h96c5.522 0 10-4.478 10-10v-29.245h46.62v72.928h-59.453c-5.522 0-10 4.478-10 10s4.478 10 10 10h59.453v154.651h-46.159v-50.221c0-32.235-26.225-58.461-58.461-58.461s-58.461 26.226-58.461 58.461v50.221h-46.159zm66.159 154.651v-50.221c0-21.207 17.254-38.461 38.461-38.461s38.461 17.254 38.461 38.461v50.221zm274.461 0h-111.38v-108.38h30.211v19.026c0 5.522 4.478 10 10 10h43.363c5.522 0 10-4.478 10-10v-19.026h17.806z"/><path d="m255.819 336.83c-4.242 0-8.104-2.782-9.469-6.79-1.364-4.001.02-8.578 3.383-11.142 3.238-2.468 7.722-2.712 11.22-.637 3.481 2.065 5.403 6.204 4.727 10.197-.806 4.762-5.015 8.372-9.861 8.372z"/><path d="m256 232.067c-19.851 0-36-16.149-36-36s16.149-36 36-36 36 16.149 36 36-16.149 36-36 36zm0-52c-8.822 0-16 7.178-16 16s7.178 16 16 16 16-7.178 16-16-7.178-16-16-16z"/></svg>