<?xml version="1.0" encoding="iso-8859-1"?>
<!-- Generator: Adobe Illustrator 19.0.0, SVG Export Plug-In . SVG Version: 6.00 Build 0)  -->
<svg version="1.1" id="Capa_1" xmlns="http://www.w3.org/2000/svg" xmlns:xlink="http://www.w3.org/1999/xlink" x="0px" y="0px"
	 viewBox="0 0 512 512" style="enable-background:new 0 0 512 512;" xml:space="preserve">
<g>
	<g>
		<g>
			<path d="M502,492c-5.51,0-10,4.49-10,10s4.49,10,10,10s10-4.49,10-10S507.51,492,502,492z"/>
			<path d="M462,492H356v-30c0-5.522-4.477-10-10-10h-16v-30c0-5.522-4.477-10-10-10h-34v-62h116.5c18.472,0,33.5-15.028,33.5-33.5
				V162.868l23.48-37.568c1.163-1.86,1.648-4.012,1.474-6.125c-0.001-0.025-9.995-110.08-9.995-110.08
				C450.491,3.943,446.172,0,441,0h-70c-5.172,0-9.491,3.943-9.959,9.095c0,0-9.994,110.055-9.995,110.08
				c-0.175,2.113,0.311,4.265,1.474,6.125L376,162.868V276.5c0,7.444-6.056,13.5-13.5,13.5H286V162.868l23.48-37.568
				c1.163-1.86,1.648-4.012,1.474-6.125c-0.001-0.025-9.995-110.08-9.995-110.08C300.491,3.943,296.172,0,291,0h-70
				c-5.172,0-9.491,3.943-9.959,9.095c0,0-9.994,110.055-9.995,110.08c-0.175,2.113,0.311,4.265,1.474,6.125L226,162.868V290h-76.5
				c-7.444,0-13.5-6.056-13.5-13.5V162.868l23.48-37.568c1.153-1.844,1.638-3.974,1.476-6.07
				c-0.001-0.044-9.997-110.135-9.997-110.135C150.491,3.943,146.172,0,141,0H71c-5.172,0-9.491,3.943-9.959,9.095
				c0,0-9.993,110.048-9.994,110.072c-0.177,2.116,0.309,4.271,1.473,6.133L76,162.868V316.5c0,18.472,15.028,33.5,33.5,33.5H226v62
				h-34c-5.523,0-10,4.478-10,10v30h-16c-5.523,0-10,4.478-10,10v30H10c-5.51,0-10,4.49-10,10s4.49,10,10,10h452
				c5.51,0,10-4.49,10-10S467.51,492,462,492z M420.458,150h-28.915l-12.5-20h53.915L420.458,150z M371.949,110l8.183-90h51.735
				l8.182,90H371.949z M221.95,110l8.182-90h51.735l8.182,90H221.95z M282.958,130l-12.5,20h-28.915l-12.5-20H282.958z M71.95,110
				l8.182-90h51.735l8.182,90H71.95z M79.042,130h53.915l-12.5,20H91.542L79.042,130z M109.5,330c-7.444,0-13.5-6.056-13.5-13.5V170
				h20v106.5c0,18.472,15.028,33.5,33.5,33.5H236c5.523,0,10-4.478,10-10V170h20v130c0,5.522,4.477,10,10,10h86.5
				c18.472,0,33.5-15.028,33.5-33.5V170h20v146.5c0,7.444-6.056,13.5-13.5,13.5H276c-5.523,0-10,4.478-10,10v72h-20v-72
				c0-5.522-4.477-10-10-10H109.5z M202,432h108v20H202V432z M336,492H176v-20h160V492z"/>
		</g>
	</g>
</g>
<g>
</g>
<g>
</g>
<g>
</g>
<g>
</g>
<g>
</g>
<g>
</g>
<g>
</g>
<g>
</g>
<g>
</g>
<g>
</g>
<g>
</g>
<g>
</g>
<g>
</g>
<g>
</g>
<g>
</g>
</svg>
