<?xml version="1.0" encoding="iso-8859-1"?>
<!-- Generator: Adobe Illustrator 19.0.0, SVG Export Plug-In . SVG Version: 6.00 Build 0)  -->
<svg version="1.1" id="Capa_1" xmlns="http://www.w3.org/2000/svg" xmlns:xlink="http://www.w3.org/1999/xlink" x="0px" y="0px"
	 viewBox="0 0 512 512" style="enable-background:new 0 0 512 512;" xml:space="preserve">
<g>
	<g>
		<g>
			<path d="M507.383,282.489L265.957,128.293V92.929c21.125-4.596,36.994-23.444,36.994-45.929c0-25.916-21.081-47-46.992-47
				s-46.992,21.084-46.992,47c0,5.523,4.476,10,9.998,10c5.522,0,9.998-4.477,9.998-10c0-14.888,12.11-27,26.996-27
				c14.885,0,26.996,12.112,26.996,27s-12.11,27-26.996,27c-5.522,0-9.998,4.477-9.998,10v44.291L4.787,282.237
				c-2.872,1.833-4.613,5.004-4.619,8.412L0,384.232c-0.005,2.655,1.047,5.204,2.922,7.083c1.876,1.879,4.422,2.935,7.076,2.935
				h97.984V502c0,5.523,4.476,10,9.998,10h275.955c5.522,0,9.998-4.477,9.998-10V394.25h97.984c5.519,0,9.993-4.472,9.998-9.991
				L512,290.926C512.003,287.509,510.262,284.328,507.383,282.489z M108.803,334.508H79.987v-29.094l175.971-112.326L431.93,305.414
				v29.094h-28.825C398.584,308.137,375.581,288,347.944,288h-183.97C136.336,288,113.327,308.137,108.803,334.508z
				 M382.656,334.508h-69.427C317.404,319.25,331.381,308,347.944,308C364.506,308,378.48,319.25,382.656,334.508z M291.952,344.984
				V492H127.979V344c0-19.851,16.147-36,35.994-36h141.114C292.952,322,291.952,344.984,291.952,344.984z M383.938,492H311.95
				v-97.75h71.988V492z M491.929,374.25h-179.98v-19.742h129.979c5.522,0,9.998-4.477,9.998-10v-44.575
				c0-3.415-1.742-6.593-4.619-8.43l-185.97-118.708c-3.28-2.093-7.477-2.094-10.758,0L64.61,291.503
				c-2.877,1.837-4.619,5.015-4.619,8.43v44.575c0,5.523,4.476,10,9.998,10h37.994v19.742H20.015l0.14-78.096l235.803-150.518
				l236.041,150.757L491.929,374.25z"/>
			<path d="M261.958,370c5.509,0,9.998-4.49,9.998-10s-4.49-10-9.998-10c-5.519,0-9.998,4.49-9.998,10S256.439,370,261.958,370z"/>
			<path d="M147.976,360c0,5.51,4.489,10,9.998,10h63.99c5.509,0,9.998-4.49,9.998-10s-4.489-10-9.998-10h-63.99
				C152.465,350,147.976,354.49,147.976,360z"/>
		</g>
	</g>
</g>
<g>
</g>
<g>
</g>
<g>
</g>
<g>
</g>
<g>
</g>
<g>
</g>
<g>
</g>
<g>
</g>
<g>
</g>
<g>
</g>
<g>
</g>
<g>
</g>
<g>
</g>
<g>
</g>
<g>
</g>
</svg>
