<?xml version="1.0" encoding="iso-8859-1"?>
<!-- Generator: Adobe Illustrator 19.0.0, SVG Export Plug-In . SVG Version: 6.00 Build 0)  -->
<svg version="1.1" id="Capa_1" xmlns="http://www.w3.org/2000/svg" xmlns:xlink="http://www.w3.org/1999/xlink" x="0px" y="0px"
	 viewBox="0 0 512.003 512.003" style="enable-background:new 0 0 512.003 512.003;" xml:space="preserve">
<g>
	<g>
		<g>
			<path d="M512.002,160c-0.001-30.367-8.476-59.713-24.563-85.218l23.877-61.144c1.444-3.698,0.564-7.901-2.243-10.709
				c-2.807-2.808-7.011-3.688-10.709-2.243L437.22,24.563C411.715,8.476,382.368,0,352.001,0h-192
				c-30.367,0-59.714,8.476-85.219,24.563L13.639,0.686C9.941-0.759,5.739,0.123,2.93,2.929C0.122,5.737-0.758,9.94,0.687,13.638
				l23.877,61.144C8.477,100.287,0.001,129.633,0.001,160v192c0,30.367,8.476,59.714,24.563,85.219L0.687,498.363
				c-1.444,3.698-0.564,7.901,2.243,10.709c2.808,2.809,7.012,3.691,10.709,2.243l61.144-23.877
				C100.287,503.525,129.634,512,160.001,512h192c30.367,0,59.714-8.476,85.219-24.562l61.144,23.877
				c1.182,0.462,2.413,0.686,3.636,0.686c2.604,0,5.162-1.019,7.073-2.929c2.808-2.808,3.688-7.011,2.243-10.709l-23.877-61.144
				c16.087-25.505,24.563-54.852,24.563-85.219V160z M286.359,20l-30.857,30.857L224.644,20H286.359z M20.002,225.644L50.859,256.5
				l-30.857,30.857V225.644z M223.644,492l31.857-31.857L287.359,492H223.644z M492,352c0.001,28.132-8.307,55.258-24.027,78.448
				c-1.847,2.725-2.234,6.183-1.037,9.249l17.451,44.689l-44.689-17.451c-3.065-1.2-6.524-0.81-9.249,1.037
				C407.259,483.692,380.133,492,352.001,492h-36.357l-53.071-53.071c-3.906-3.904-10.236-3.904-14.143,0L195.359,492h-35.357
				c-28.132,0-55.258-8.309-78.447-24.028c-1.68-1.139-3.639-1.723-5.612-1.723c-1.228,0-2.461,0.226-3.637,0.686l-44.689,17.451
				l17.451-44.689c1.197-3.066,0.81-6.524-1.037-9.249c-15.721-23.19-24.03-50.316-24.03-78.448v-36.357l52.071-52.071
				c3.905-3.905,3.905-10.237,0-14.143l-52.071-52.071V160c0-28.132,8.309-55.258,24.028-78.447
				c1.847-2.725,2.234-6.183,1.037-9.249L27.615,27.615l44.689,17.451c3.066,1.2,6.524,0.81,9.249-1.037
				C104.743,28.309,131.869,20,160.001,20h36.357l52.071,52.071C250.382,74.023,252.941,75,255.5,75s5.118-0.977,7.071-2.929
				L314.644,20h37.357c28.132,0,55.258,8.309,78.447,24.028c2.725,1.847,6.184,2.237,9.249,1.037l44.689-17.451l-17.451,44.689
				c-1.197,3.066-0.81,6.524,1.037,9.249C483.692,104.741,492,131.867,492,159.999v37.357l-52.071,52.071
				c-3.905,3.905-3.905,10.237,0,14.143L492,315.641V352z M492.001,287.358L461.144,256.5l30.857-30.857V287.358z"/>
			<path d="M318.072,249.429l-55-55c-3.906-3.904-10.236-3.904-14.143,0l-55,55c-3.905,3.905-3.905,10.237,0,14.143l55,55
				c1.953,1.952,4.512,2.929,7.071,2.929s5.118-0.977,7.071-2.929l55-55C321.978,259.666,321.978,253.334,318.072,249.429z
				 M256.001,297.358L215.144,256.5l40.857-40.857l40.857,40.857L256.001,297.358z"/>
			<path d="M371.43,195.072c1.953,1.952,4.512,2.929,7.071,2.929s5.118-0.977,7.071-2.929l55-55c3.905-3.905,3.905-10.237,0-14.143
				l-55-55c-3.906-3.904-10.236-3.904-14.143,0l-55,55c-3.905,3.905-3.905,10.237,0,14.143L371.43,195.072z M378.501,92.143
				L419.359,133l-40.857,40.857L337.644,133L378.501,92.143z"/>
			<path d="M132.501,198c2.56,0,5.118-0.977,7.071-2.929l55-55c3.905-3.905,3.905-10.237,0-14.143l-55-55
				c-3.906-3.904-10.236-3.904-14.143,0l-55,55c-3.905,3.905-3.905,10.237,0,14.143l55,55C127.383,197.024,129.942,198,132.501,198z
				 M132.501,92.143L173.359,133l-40.857,40.857L91.644,133L132.501,92.143z"/>
			<path d="M371.429,316.929l-55,55c-3.905,3.905-3.905,10.237,0,14.143l55,55c1.953,1.952,4.512,2.929,7.071,2.929
				s5.118-0.977,7.071-2.929l55-55c3.905-3.905,3.905-10.237,0-14.143l-54.999-55C381.666,313.025,375.336,313.025,371.429,316.929z
				 M378.501,419.858L337.644,379l40.857-40.857L419.359,379L378.501,419.858z"/>
			<path d="M139.572,316.929c-3.906-3.904-10.236-3.904-14.143,0l-55,55c-3.905,3.905-3.905,10.237,0,14.143l55,55
				c1.953,1.952,4.512,2.929,7.071,2.929c2.559,0,5.118-0.977,7.071-2.929l55-55c3.905-3.905,3.905-10.237,0-14.143L139.572,316.929
				z M132.501,419.858L91.644,379l40.857-40.857L173.359,379L132.501,419.858z"/>
		</g>
	</g>
</g>
<g>
</g>
<g>
</g>
<g>
</g>
<g>
</g>
<g>
</g>
<g>
</g>
<g>
</g>
<g>
</g>
<g>
</g>
<g>
</g>
<g>
</g>
<g>
</g>
<g>
</g>
<g>
</g>
<g>
</g>
</svg>
