<svg id="Capa_1" enable-background="new 0 0 512 512" height="512" viewBox="0 0 512 512" width="512" xmlns="http://www.w3.org/2000/svg"><g><g><path d="m475.196 98.673c-9.917-14.44-23.801-25.402-40.152-31.699-5.152-1.985-10.941.583-12.926 5.738-1.985 5.154.584 10.941 5.738 12.926 25.422 9.79 42.502 34.665 42.502 61.896v53.713h-79.388l8.862-16.568c.804-1.503 1.185-3.119 1.184-4.712-.001-3.569-1.918-7.021-5.286-8.822-4.87-2.605-10.929-.768-13.534 4.102l-16.733 31.285c-.005.008-.009.017-.014.025-5.198 9.733-8.215 20.177-9.101 30.712h-35.52c-6.836-8.851-15.782-13.06-21.788-14.171-2.215-.409-5.1-.409-7.313 0-6.006 1.11-14.952 5.32-21.788 14.171h-37.879c5.577-59.109 33.935-114.915 78.378-154.276 13.017-11.529 27.27-21.195 42.335-29.833 2.522-1.097 4.2-3.068 5.129-5.675.948-2.658.428-5.457-.904-7.944-12.933-24.143-38.645-39.542-66.04-39.541h-69.898c-26.035.083-50.689 13.88-64.152 36.213l-79.937 30.761c-16.357 6.296-30.246 17.257-40.165 31.698-9.921 14.443-15.165 31.34-15.165 48.863v62.648c0 5.523 4.477 10 10 10h99.201c2.345 5.606 3.815 11.475 4.434 17.386-4.364 1.075-7.605 5.003-7.605 9.699 0 4.331 2.758 8.007 6.609 9.398-1.593 7.454-4.605 14.581-9.022 20.897-9.337 13.332-14.272 28.99-14.272 45.281v179.156c0 5.523 4.477 10 10 10h270.028c5.523 0 10-4.477 10-10v-179.155c0-8.019-1.223-15.995-3.642-23.73-2.43-7.707-5.997-14.951-10.601-21.533-4.387-6.27-7.435-13.165-9.123-20.313h3.74c5.523 0 10-4.477 10-10s-4.477-10-10-10h-4.938c.613-5.44 1.991-10.831 4.146-16.021h99.762c5.523 0 10-4.477 10-10v-63.713c.001-17.522-5.242-34.418-15.162-48.862zm-184.238-78.673c4.637 0 9.177.6 13.546 1.709 11.655 2.959 22.057 9.661 29.551 19.161-23.544 14.248-44.706 32.336-62.492 53.331-4.939 5.83-9.632 11.882-14.028 18.132-16.311-21.541-36.896-39.625-52.426-51.729-10.995-8.57-20.733-15.198-27.348-19.472 4.148-5.315 9.254-9.843 15.075-13.33 7.994-4.784 17.07-7.453 26.359-7.769.433-.015.868-.018 1.303-.022.188-.002.375-.01.563-.01h69.897zm-161.154 155.248c-2.604-4.87-8.662-6.708-13.534-4.103-4.8 2.567-6.67 8.734-4.103 13.534l8.292 15.504h-78.818v-52.648c0-27.233 17.085-52.107 42.513-61.896l78.688-30.281c5.725 3.568 16.988 10.901 29.97 21.019 15.997 12.468 37.669 31.638 53.125 54.049-19.019 32.556-30.706 69.279-33.964 106.843h-56.499c-.932-10.863-4.09-21.682-9.509-31.801zm81.207 316.752h-80.025v-169.155c0-12.166 3.684-23.856 10.658-33.813 6.765-9.674 11.108-20.518 13.009-31.763h56.375c-.006.719-.018 1.436-.018 2.156v232.575zm159.372-202.954c3.435 4.911 6.098 10.322 7.908 16.061 1.807 5.778 2.723 11.747 2.723 17.739v169.154h-150.001v-232.626c0-.702.012-1.403.018-2.104h30.214c-.683 3.616-1.074 7.556-1.074 11.869v76.601c0 5.523 4.477 10 10 10s10-4.477 10-10v-76.601c0-4.753.63-8.654 1.628-11.869h27.169c.999 3.214 1.628 7.115 1.628 11.869v28.276c0 5.523 4.477 10 10 10s10-4.477 10-10v-28.276c0-4.313-.39-8.253-1.074-11.869h27.713c1.951 11.197 6.343 22.048 13.148 31.776z"/><path d="m381.75 64.88c2.068 5.044 8.035 7.491 13.06 5.41 5.033-2.085 7.494-8.027 5.41-13.06-2.087-5.039-8.032-7.478-13.06-5.4-5.027 2.077-7.506 8.02-5.41 13.05z"/></g></g></svg>