<svg id="Capa_1" enable-background="new 0 0 512 512" height="512" viewBox="0 0 512 512" width="512" xmlns="http://www.w3.org/2000/svg"><g><g><path d="m463.591 74.819c-5.522 0-10 4.478-10 10s4.478 10 10 10c15.665 0 28.409 12.72 28.409 28.354v199.102c0 15.641-12.744 28.365-28.409 28.365h-19.024v-160.946c0-23.454-16.814-43.053-39.033-47.419-3.036-.598-6.17-.919-9.378-.919h-282.622v-18.183c0-15.635 12.744-28.354 28.409-28.354h236.298c5.522 0 10-4.478 10-10s-4.478-10-10-10h-236.298c-26.693 0-48.409 21.691-48.409 48.354v18.187h-46.677c-25.836 0-46.857 20.996-46.857 46.805v202.211c0 25.809 21.021 46.805 46.857 46.805h350.853c25.837 0 46.856-20.996 46.856-46.805v-19.735h19.024c26.693 0 48.409-21.696 48.409-48.365v-199.102c.001-26.663-21.715-48.355-48.408-48.355zm-65.881 342.362h-350.853c-14.81 0-26.857-12.024-26.857-26.805v-202.211c0-14.78 12.048-26.805 26.857-26.805h349.32c1.852 0 3.661.184 5.414.523 13.073 2.541 22.972 14.054 22.972 27.838v170.919c0 .013.002.026.002.039v29.697c.001 14.78-12.046 26.805-26.855 26.805z"/><path d="m172.09 336.738c-1.1-9.466-5.747-18.03-13.088-24.115l-4.864-4.033c-2.332-1.933-4.887-3.552-7.59-4.848 4.674-6.466 7.44-14.395 7.44-22.963 0-21.681-17.657-39.318-39.36-39.318s-39.359 17.638-39.359 39.318c0 8.567 2.765 16.497 7.439 22.962-2.703 1.296-5.259 2.916-7.592 4.849l-4.862 4.031c-7.341 6.085-11.989 14.65-13.089 24.116l-4.259 36.685c-.329 2.834.568 5.674 2.466 7.804 1.897 2.131 4.615 3.35 7.468 3.35h103.576c2.853 0 5.57-1.219 7.468-3.35 1.897-2.13 2.795-4.97 2.466-7.804zm-57.463-75.277c10.676 0 19.36 8.666 19.36 19.318s-8.685 19.318-19.36 19.318-19.359-8.666-19.359-19.318 8.684-19.318 19.359-19.318zm-40.56 103.115 2.964-25.531c.502-4.326 2.628-8.241 5.986-11.025l4.862-4.031c3.026-2.509 6.86-3.891 10.796-3.891h31.902c3.936 0 7.77 1.382 10.795 3.89l4.863 4.032c.001 0 .001.001.001.001 3.357 2.783 5.483 6.698 5.985 11.024l2.964 25.531z"/><path d="m382.563 325.453h-160.28c-5.522 0-10 4.478-10 10v39.123c0 5.522 4.478 10 10 10h160.28c5.522 0 10-4.478 10-10v-39.123c0-5.522-4.477-10-10-10zm-10 39.123h-140.28v-19.123h140.28z"/><path d="m222.283 216.041h152.267c5.522 0 10-4.478 10-10s-4.478-10-10-10h-152.267c-5.522 0-10 4.478-10 10s4.478 10 10 10z"/><path d="m222.283 257.386h64.454c5.522 0 10-4.478 10-10s-4.478-10-10-10h-64.454c-5.522 0-10 4.478-10 10s4.478 10 10 10z"/><path d="m222.283 298.731h106.855c5.522 0 10-4.478 10-10s-4.478-10-10-10h-106.855c-5.522 0-10 4.478-10 10s4.478 10 10 10z"/><path d="m62.839 216.041h45.291c5.522 0 10-4.478 10-10s-4.478-10-10-10h-45.291c-5.522 0-10 4.478-10 10s4.477 10 10 10z"/><path d="m337.45 241.83c-3.023-4.531-9.331-5.777-13.86-2.761-4.531 3.017-5.798 9.341-2.771 13.87 3.031 4.534 9.335 5.768 13.87 2.761 4.571-3.03 5.734-9.323 2.761-13.87z"/><path d="m412.03 88.64c2.065 5.041 8.038 7.493 13.06 5.41 5.035-2.089 7.496-8.023 5.41-13.06-2.079-5.02-8.046-7.507-13.061-5.4-5.015 2.106-7.514 8-5.409 13.05z"/></g></g></svg>